<svg width="100%" height="100%" viewBox="0 0 709 217" version="1.1" xmlns="http://www.w3.org/2000/svg" xmlns:xlink="http://www.w3.org/1999/xlink" xml:space="preserve" style="fill-rule:evenodd;clip-rule:evenodd;stroke-linejoin:round;stroke-miterlimit:1.41421;">
            <g transform="matrix(4.09672,0,0,4.09672,-1075.13,-345.064)">
                <g id="Layer-1">
                    <g>
                        <g transform="matrix(0.251356,0,0,0.251356,258.655,82.855)">
                            <path d="M112.782,162.297C127.542,162.297 139.053,157.196 147.329,146.989C155.596,136.783 159.741,122.543 159.741,104.264C159.741,85.992 155.581,71.707 147.259,61.416C138.938,51.125 127.45,45.979 112.782,45.979C98.206,45.979 86.733,51.168 78.374,61.542C70.008,71.921 65.831,86.161 65.831,104.264C65.831,122.375 69.983,136.568 78.305,146.859C86.626,157.153 98.114,162.297 112.782,162.297M162.012,189.585C155.129,193.344 147.534,196.204 139.22,198.166C130.907,200.128 122.098,201.11 112.804,201.11C84.285,201.11 61.471,192.318 44.356,174.725C27.231,157.131 18.673,133.649 18.673,104.264C18.673,88.21 21.29,73.84 26.512,61.159C31.745,48.476 39.546,37.65 49.909,28.687C58.222,21.513 67.628,16.128 78.13,12.541C88.631,8.954 100.186,7.165 112.782,7.165C141.201,7.165 163.993,16.003 181.155,33.681C198.309,51.359 206.889,74.888 206.889,104.264C206.889,116.562 205.462,127.69 202.607,137.636C199.747,147.586 195.327,156.576 189.345,164.602C194.7,169.303 200.55,173.039 206.889,175.812C213.231,178.587 220.022,180.361 227.257,181.126L213.323,214.182C202.784,213.156 193.208,210.57 184.59,206.429C175.97,202.284 168.443,196.671 162.012,189.585" style="fill:rgb(22,129,67);fill-rule:nonzero;"></path>
                        </g>
                        <g transform="matrix(0.251356,0,0,0.251356,258.655,82.855)">
                            <path d="M397.516,154.099C388.592,169.899 377.448,181.727 364.094,189.585C350.741,197.44 335.179,201.37 317.411,201.37C289.458,201.37 267.241,192.618 250.766,175.107C234.286,157.602 226.05,133.985 226.05,104.264C226.05,75.144 234.644,51.68 251.837,33.872C269.029,16.068 291.6,7.165 319.554,7.165C337.143,7.165 352.438,11.158 365.434,19.142C378.426,27.126 388.545,38.721 395.78,53.921L359.874,71.983C355.675,63.102 350.145,56.376 343.263,51.807C336.386,47.241 328.393,44.954 319.285,44.954C305.083,44.954 293.856,50.227 285.595,60.774C277.336,71.324 273.207,85.817 273.207,104.264C273.207,122.887 277.29,137.338 285.458,147.628C293.634,157.922 305.083,163.067 319.82,163.067C329.112,163.067 337.143,160.89 343.934,156.531C350.718,152.179 356.393,145.602 360.95,136.806L397.516,154.099Z" style="fill:rgb(41,108,174);fill-rule:nonzero;"></path>
                        </g>
                        <g transform="matrix(0.251356,0,0,0.251356,258.655,82.855)">
                            <path d="M447.701,127.835C447.701,140.394 450.584,150.362 456.344,157.75C462.103,165.139 469.803,168.829 479.449,168.829C489.101,168.829 496.818,165.115 502.629,157.686C508.435,150.255 511.334,140.309 511.334,127.835C511.334,115.285 508.457,105.289 502.689,97.862C496.931,90.429 489.183,86.716 479.449,86.716C469.894,86.716 462.217,90.475 456.412,97.989C450.599,105.507 447.701,115.457 447.701,127.835M479.449,201.11C457.125,201.11 439.15,194.411 425.531,181C411.908,167.593 405.101,149.869 405.101,127.835C405.101,105.889 411.933,88.169 425.597,74.674C439.265,61.183 457.217,54.434 479.449,54.434C501.957,54.434 520.019,61.159 533.642,74.609C547.256,88.062 554.07,105.801 554.07,127.835C554.07,149.789 547.209,167.485 533.504,180.936C519.791,194.388 501.781,201.11 479.449,201.11" style="fill:rgb(41,108,174);fill-rule:nonzero;"></path>
                        </g>
                        <g transform="matrix(0.251356,0,0,0.251356,258.655,82.855)">
                            <path d="M572.31,196.629L572.31,58.919L613.977,58.919L613.977,71.73C619.33,66.345 625.378,62.333 632.124,59.684C638.872,57.041 646.435,55.715 654.831,55.715C669.838,55.715 681.003,60.456 688.324,69.932C695.651,79.415 699.305,93.936 699.305,113.486L699.305,196.629L657.646,196.629L657.646,115.537C657.646,106.233 656.002,99.4 652.728,95.04C649.449,90.69 644.256,88.51 637.158,88.51C628.798,88.51 622.849,90.539 619.3,94.594C615.749,98.65 613.977,105.633 613.977,115.537L613.977,196.629L572.31,196.629Z" style="fill:rgb(41,108,174);fill-rule:nonzero;"></path>
                        </g>
                        <g transform="matrix(0.251356,0,0,0.251356,258.655,82.855)">
                            <g opacity="0.100006">
                                <clipPath id="_clip1">
                                    <rect x="657.547" y="109.676" width="41.758" height="86.953"></rect>
                                </clipPath>
                                <g clip-path="url(#_clip1)">
                                    <path d="M699.213,109.676C685.088,110.483 671.215,111.213 657.547,111.874C657.608,113.054 657.647,114.268 657.647,115.537L657.647,196.629L699.305,196.629L699.305,113.487C699.305,112.176 699.244,110.945 699.213,109.676" style="fill:rgb(32,102,169);fill-rule:nonzero;"></path>
                                </g>
                            </g>
                        </g>
                        <g transform="matrix(0.251356,0,0,0.251356,258.655,82.855)">
                            <path d="M572.31,196.629L613.977,196.629L613.977,115.537C613.977,114.927 613.998,114.363 614.016,113.776C599.925,114.324 586.031,114.799 572.31,115.2L572.31,196.629Z" style="fill:rgb(32,102,169);fill-rule:nonzero;"></path>
                        </g>
                        <g transform="matrix(0.251356,0,0,0.251356,258.655,82.855)">
                            <path d="M510.408,116.553C511.004,120.059 511.334,123.801 511.334,127.835C511.334,140.309 508.435,150.255 502.629,157.686C496.818,165.116 489.101,168.829 479.449,168.829C469.803,168.829 462.103,165.139 456.344,157.75C450.584,150.363 447.701,140.394 447.701,127.835C447.701,123.973 448.023,120.374 448.582,116.985C434.295,116.979 420.054,116.905 405.804,116.76C405.392,120.341 405.101,123.999 405.101,127.835C405.101,149.869 411.908,167.593 425.531,181C439.15,194.411 457.125,201.111 479.449,201.111C501.781,201.111 519.791,194.388 533.504,180.936C547.209,167.486 554.07,149.789 554.07,127.835C554.07,123.621 553.74,119.616 553.242,115.715C538.82,116.073 524.556,116.348 510.408,116.553" style="fill:rgb(32,102,169);fill-rule:nonzero;"></path>
                        </g>
                        <g transform="matrix(0.251356,0,0,0.251356,258.655,82.855)">
                            <path d="M343.934,156.531C337.143,160.89 329.112,163.067 319.82,163.067C305.082,163.067 293.633,157.923 285.457,147.629C278.743,139.165 274.827,127.838 273.634,113.737C258.071,113.207 242.315,112.616 226.325,111.977C227.654,138.073 235.753,159.157 250.766,175.107C267.241,192.618 289.457,201.371 317.411,201.371C335.178,201.371 350.741,197.44 364.094,189.586C377.447,181.727 388.592,169.899 397.516,154.099L360.949,136.806C356.393,145.602 350.717,152.179 343.934,156.531" style="fill:rgb(32,102,169);fill-rule:nonzero;"></path>
                        </g>
                        <g transform="matrix(0.251356,0,0,0.251356,258.655,82.855)">
                            <g opacity="0.100006">
                                <clipPath id="_clip2">
                                    <rect x="18.672" y="102.205" width="208.584" height="111.977"></rect>
                                </clipPath>
                                <g clip-path="url(#_clip2)">
                                    <path d="M112.804,201.111C122.098,201.111 130.907,200.129 139.22,198.167C147.533,196.205 155.128,193.344 162.012,189.586C168.443,196.672 175.97,202.285 184.589,206.429C193.207,210.571 202.783,213.157 213.323,214.182L227.256,181.127C220.022,180.362 213.231,178.588 206.889,175.812C200.549,173.04 194.7,169.303 189.345,164.602C195.326,156.577 199.746,147.587 202.607,137.636C204.917,129.599 206.241,120.75 206.684,111.173C191.249,110.526 175.573,109.835 159.594,109.101C158.914,125.055 154.844,137.71 147.328,146.99C139.052,157.197 127.541,162.298 112.782,162.298C98.114,162.298 86.625,157.154 78.305,146.86C70.037,136.631 65.891,122.536 65.838,104.58C50.459,103.811 34.764,103.018 18.719,102.206C18.703,102.895 18.672,103.569 18.672,104.264C18.672,133.649 27.231,157.132 44.356,174.725C61.471,192.319 84.284,201.111 112.804,201.111" style="fill:white;fill-rule:nonzero;"></path>
                                </g>
                            </g>
                        </g>
                    </g>
                </g>
            </g>
        </svg>
